<?xml version="1.0" encoding="UTF-8" standalone="no"?>
<!-- Created with Inkscape (http://www.inkscape.org/) -->
<svg xmlns:dc="http://purl.org/dc/elements/1.1/" xmlns:cc="http://creativecommons.org/ns#" xmlns:rdf="http://www.w3.org/1999/02/22-rdf-syntax-ns#" xmlns:svg="http://www.w3.org/2000/svg" xmlns="http://www.w3.org/2000/svg" xmlns:sodipodi="http://sodipodi.sourceforge.net/DTD/sodipodi-0.dtd" xmlns:inkscape="http://www.inkscape.org/namespaces/inkscape" width="107.08494mm" height="202.4187mm" viewBox="0 0 107.08494 202.4187" version="1.1" id="svg8" inkscape:version="0.92.4 (5da689c313, 2019-01-14)" sodipodi:docname="Bronze Star New.svg">
  <defs id="defs2"/>
  <sodipodi:namedview id="base" pagecolor="#ffffff" bordercolor="#666666" borderopacity="1.0" inkscape:pageopacity="0.0" inkscape:pageshadow="2" inkscape:zoom="0.7" inkscape:cx="448.52392" inkscape:cy="503.66034" inkscape:document-units="mm" inkscape:current-layer="layer1" showgrid="false" showguides="false" inkscape:window-width="2560" inkscape:window-height="1377" inkscape:window-x="-8" inkscape:window-y="317" inkscape:window-maximized="1"/>
  <metadata id="metadata5">
    <rdf:RDF>
      <cc:Work rdf:about="">
        <dc:format>image/svg+xml</dc:format>
        <dc:type rdf:resource="http://purl.org/dc/dcmitype/StillImage"/>
        <dc:title/>
      </cc:Work>
    </rdf:RDF>
  </metadata>
  <g inkscape:label="Layer 1" inkscape:groupmode="layer" id="layer1" transform="translate(415.81304,-161.62306)">
    <g id="g2090">
      <g transform="translate(-215.89346,241.2634)" id="g2570" style="display:inline;opacity:1">
        <path inkscape:connector-curvature="0" style="fill:#ffffff;stroke-width:22.16362572" d="m -755.60156,-301.00195 v 188.64257 l 168.54883,198.458989 h 61.57031 l 174.61133,-201.400389 v -185.70117 z" id="path4-4" transform="scale(0.26458333)"/>
        <path d="m -151.27234,-79.640342 h 9.79059 v 102.4208 h -9.79059 z" id="path4-1-7" inkscape:connector-curvature="0" style="fill:#001489;fill-opacity:1;stroke-width:5.86412621"/>
        <path inkscape:connector-curvature="0" style="fill:#ba0c2f;fill-opacity:1;stroke-width:22.16362572" d="M -525.48242,-301.00195 V 86.099609 l 165.35937,-190.728519 v -196.37304 z" transform="scale(0.26458333)" id="path4-1-8"/>
        <path inkscape:connector-curvature="0" style="fill:#ba0c2f;fill-opacity:1;stroke-width:22.16362572" d="m -746.34961,-301.00195 v 199.53515 l 159.29688,187.566409 h 6.06445 V -301.00195 Z" transform="scale(0.26458333)" id="path4-1"/>
        <path inkscape:connector-curvature="0" style="color:#000000;font-style:normal;font-variant:normal;font-weight:normal;font-stretch:normal;font-size:medium;line-height:normal;font-family:Sans;-inkscape-font-specification:Sans;text-indent:0;text-align:start;text-decoration:none;text-decoration-line:none;letter-spacing:normal;word-spacing:normal;text-transform:none;writing-mode:lr-tb;direction:ltr;baseline-shift:baseline;text-anchor:start;display:inline;overflow:visible;visibility:visible;fill:#000000;fill-opacity:0.25;stroke:none;stroke-width:509.57427979;marker:none;enable-background:accumulate" d="m -755.60156,-301.00195 v 6.68359 h 404.73047 v -6.68359 z m 0,13.36718 v 6.68165 h 404.73047 v -6.68165 z m 0,13.36524 v 6.68359 h 404.73047 v -6.68359 z m 0,13.36523 v 6.6836 h 404.73047 v -6.6836 z m 0,13.36719 v 6.68359 h 404.73047 v -6.68359 z m 0,13.36523 v 6.6836 h 404.73047 v -6.6836 z m 0,13.36719 v 6.6836 h 404.73047 v -6.6836 z m 0,13.36524 v 6.68359 h 404.73047 v -6.68359 z m 0,13.36718 v 6.6836 h 404.73047 v -6.6836 z m 0,13.36524 v 6.68359 h 404.73047 v -6.68359 z m 0,13.36719 v 6.68359 h 404.73047 v -6.68359 z m 0,13.36523 v 6.68359 h 404.73047 v -6.68359 z m 0,13.36719 v 6.68359 h 404.73047 v -6.68359 z m 0,13.36523 v 6.6836 h 404.73047 v -6.6836 z m 0,13.36719 v 1.51562 l 4.38867,5.16797 h 393.31055 l 5.79492,-6.68359 z m 10.06445,13.36523 5.67578,6.683598 h 370.3711 l 5.79492,-6.683598 z m 11.35156,13.367192 5.67578,6.683594 h 347.43165 l 5.79492,-6.683594 z m 11.35157,13.365234 5.67578,6.683594 h 324.49218 l 5.79493,-6.683594 z m 11.35156,13.367188 5.67773,6.683594 h 301.54883 l 5.79492,-6.683594 z m 11.35156,13.365234 5.67578,6.683594 h 278.61328 l 5.79297,-6.683594 z m 11.35352,13.367188 5.67578,6.683593 h 255.66992 l 5.79492,-6.683593 z m 11.34961,13.365234 5.67578,6.683594 h 232.73242 l 5.79492,-6.683594 z m 11.35351,13.3671875 5.67578,6.68359375 h 209.79102 l 5.79297,-6.68359375 z m 11.34961,13.3652344 5.67773,6.6835941 h 186.85157 l 5.79492,-6.6835941 z m 11.35352,13.3671871 5.67578,6.683594 h 163.91015 l 5.79493,-6.683594 z m 11.34961,13.365235 5.67773,6.683594 h 140.9707 l 5.79493,-6.683594 z m 11.35351,13.367187 5.67578,6.683594 h 118.03125 l 5.79297,-6.683594 z m 11.35156,13.365235 5.67579,6.683593 h 95.09179 l 5.79492,-6.683593 z m 11.35157,13.367187 5.67382,6.681641 h 72.1543 l 5.79297,-6.681641 z" transform="scale(0.26458333)" id="path24-8"/>
      </g>
      <path inkscape:connector-curvature="0" id="path2573" d="m -361.98777,265.49982 -13.00266,36.52906 h -38.86768 l 31.15027,24.32153 -11.08501,36.43551 31.47767,-22.35709 31.38412,21.65551 -11.82049,-36.5002 31.98151,-23.21718 h -38.76146 z" style="fill:#dbb110;fill-opacity:1;stroke:#8e670c;stroke-width:1;stroke-linecap:butt;stroke-linejoin:miter;stroke-miterlimit:4;stroke-dasharray:none;stroke-opacity:1"/>
      <path inkscape:connector-curvature="0" id="path3214" d="m -361.98777,265.49982 v 53.78799 l -31.80508,43.49811" style="fill:none;stroke:#8e670c;stroke-width:1;stroke-linecap:butt;stroke-linejoin:miter;stroke-miterlimit:4;stroke-dasharray:none;stroke-opacity:1"/>
      <path inkscape:connector-curvature="0" id="path3216" d="m -361.98777,319.28781 31.05671,42.79653" style="fill:none;stroke:#8e670c;stroke-width:1;stroke-linecap:butt;stroke-linejoin:miter;stroke-miterlimit:4;stroke-dasharray:none;stroke-opacity:1"/>
      <path inkscape:connector-curvature="0" id="path3218" d="m -413.85811,302.02888 51.87034,17.25893 51.21773,-16.92085" style="fill:none;stroke:#8e670c;stroke-width:1;stroke-linecap:butt;stroke-linejoin:miter;stroke-miterlimit:4;stroke-dasharray:none;stroke-opacity:1"/>
      <path inkscape:connector-curvature="0" id="path3221" d="m -374.99043,302.02888 13.00266,17.25893 12.45627,-16.92085" style="fill:none;stroke:#8e670c;stroke-width:0.75;stroke-linecap:butt;stroke-linejoin:miter;stroke-miterlimit:4;stroke-dasharray:none;stroke-opacity:1"/>
      <path inkscape:connector-curvature="0" id="path3223" d="m -382.70784,326.35041 20.72007,-7.0626 19.23622,6.29633" style="fill:none;stroke:#8e670c;stroke-width:0.75;stroke-linecap:butt;stroke-linejoin:miter;stroke-miterlimit:4;stroke-dasharray:none;stroke-opacity:1"/>
      <path transform="scale(1,-1)" inkscape:transform-center-y="-0.72924001" inkscape:transform-center-x="-2.156351e-06" d="m -362.03671,-311.94807 -2.39397,-4.3417 -4.86897,-0.93514 3.38942,-3.61845 -0.61523,-4.91964 4.48875,2.10537 4.48874,-2.10537 -0.61523,4.91964 3.38942,3.61845 -4.86897,0.93514 z" inkscape:randomized="0" inkscape:rounded="0" inkscape:flatsided="false" sodipodi:arg2="2.1991148" sodipodi:arg1="1.5707963" sodipodi:r2="4.072855" sodipodi:r1="7.6367044" sodipodi:cy="-319.58477" sodipodi:cx="-362.03671" sodipodi:sides="5" id="path3225" style="opacity:1;fill:#dbb110;fill-opacity:1;fill-rule:evenodd;stroke:#8e670c;stroke-width:0.84299999;stroke-miterlimit:4;stroke-dasharray:none;stroke-dashoffset:0;stroke-opacity:1" sodipodi:type="star"/>
    </g>
  </g>
</svg>